<mxfile host="Electron" modified="2024-05-14T10:54:58.396Z" agent="Mozilla/5.0 (Windows NT 10.0; Win64; x64) AppleWebKit/537.36 (KHTML, like Gecko) draw.io/22.0.3 Chrome/114.0.5735.289 Electron/25.8.4 Safari/537.36" etag="vAQPjNkW7KS4TvLms2Iz" version="22.0.3" type="device">
  <diagram name="Page-1" id="VjAzTuWlbBvKl5wt7f5E">
    <mxGraphModel dx="545" dy="319" grid="1" gridSize="9" guides="1" tooltips="1" connect="1" arrows="1" fold="1" page="1" pageScale="1" pageWidth="850" pageHeight="1100" math="0" shadow="0">
      <root>
        <mxCell id="0" />
        <mxCell id="1" parent="0" />
        <mxCell id="d9allw8TYP7CSEPPQ8cC-1" value="&lt;div style=&quot;&quot;&gt;&lt;div style=&quot;&quot;&gt;&lt;font style=&quot;font-size: 12px;&quot;&gt;countSort()&lt;/font&gt;&lt;/div&gt;&lt;/div&gt;" style="rounded=1;whiteSpace=wrap;html=1;fontFamily=Times New Roman;" vertex="1" parent="1">
          <mxGeometry x="310" y="90" width="90" height="30" as="geometry" />
        </mxCell>
        <mxCell id="d9allw8TYP7CSEPPQ8cC-2" value="" style="endArrow=classic;html=1;rounded=0;exitX=0.5;exitY=1;exitDx=0;exitDy=0;fontFamily=Times New Roman;" edge="1" parent="1" source="d9allw8TYP7CSEPPQ8cC-1">
          <mxGeometry width="50" height="50" relative="1" as="geometry">
            <mxPoint x="350" y="260" as="sourcePoint" />
            <mxPoint x="355" y="160" as="targetPoint" />
          </mxGeometry>
        </mxCell>
        <mxCell id="d9allw8TYP7CSEPPQ8cC-3" value="&lt;font&gt;if(arr.empty())&lt;/font&gt;" style="rhombus;whiteSpace=wrap;html=1;fontFamily=Times New Roman;" vertex="1" parent="1">
          <mxGeometry x="310" y="160" width="90" height="60" as="geometry" />
        </mxCell>
        <mxCell id="d9allw8TYP7CSEPPQ8cC-4" value="" style="endArrow=classic;html=1;rounded=0;exitX=0;exitY=0.5;exitDx=0;exitDy=0;fontFamily=Times New Roman;" edge="1" parent="1" source="d9allw8TYP7CSEPPQ8cC-3">
          <mxGeometry width="50" height="50" relative="1" as="geometry">
            <mxPoint x="250" y="320" as="sourcePoint" />
            <mxPoint x="270" y="230" as="targetPoint" />
            <Array as="points">
              <mxPoint x="270" y="190" />
            </Array>
          </mxGeometry>
        </mxCell>
        <mxCell id="d9allw8TYP7CSEPPQ8cC-7" value="False" style="edgeLabel;html=1;align=center;verticalAlign=middle;resizable=0;points=[];fontFamily=Times New Roman;" vertex="1" connectable="0" parent="d9allw8TYP7CSEPPQ8cC-4">
          <mxGeometry x="-0.505" y="-1" relative="1" as="geometry">
            <mxPoint as="offset" />
          </mxGeometry>
        </mxCell>
        <mxCell id="d9allw8TYP7CSEPPQ8cC-5" value="" style="endArrow=classic;html=1;rounded=0;exitX=1;exitY=0.5;exitDx=0;exitDy=0;fontFamily=Times New Roman;" edge="1" parent="1" source="d9allw8TYP7CSEPPQ8cC-3">
          <mxGeometry width="50" height="50" relative="1" as="geometry">
            <mxPoint x="460" y="330" as="sourcePoint" />
            <mxPoint x="440" y="230" as="targetPoint" />
            <Array as="points">
              <mxPoint x="440" y="190" />
            </Array>
          </mxGeometry>
        </mxCell>
        <mxCell id="d9allw8TYP7CSEPPQ8cC-6" value="&lt;font&gt;True&lt;/font&gt;" style="edgeLabel;html=1;align=center;verticalAlign=middle;resizable=0;points=[];fontFamily=Times New Roman;" vertex="1" connectable="0" parent="d9allw8TYP7CSEPPQ8cC-5">
          <mxGeometry x="-0.545" y="1" relative="1" as="geometry">
            <mxPoint as="offset" />
          </mxGeometry>
        </mxCell>
        <mxCell id="d9allw8TYP7CSEPPQ8cC-8" value="&lt;font face=&quot;Times New Roman&quot;&gt;return;&lt;/font&gt;" style="rounded=0;whiteSpace=wrap;html=1;" vertex="1" parent="1">
          <mxGeometry x="397" y="230" width="90" height="60" as="geometry" />
        </mxCell>
        <mxCell id="d9allw8TYP7CSEPPQ8cC-9" value="&lt;div style=&quot;line-height: 40%;&quot;&gt;&lt;pre style=&quot;font-size: 10px; line-height: 40%;&quot;&gt;&lt;font face=&quot;Times New Roman&quot;&gt;Ініцілізація min_val, &lt;/font&gt;&lt;/pre&gt;&lt;pre style=&quot;font-size: 10px; line-height: 40%;&quot;&gt;&lt;font face=&quot;Times New Roman&quot;&gt;max_val та range&lt;/font&gt;&lt;/pre&gt;&lt;/div&gt;" style="rounded=0;whiteSpace=wrap;html=1;align=center;" vertex="1" parent="1">
          <mxGeometry x="225" y="230" width="90" height="60" as="geometry" />
        </mxCell>
        <mxCell id="d9allw8TYP7CSEPPQ8cC-10" value="" style="endArrow=classic;html=1;rounded=0;exitX=0.5;exitY=1;exitDx=0;exitDy=0;" edge="1" parent="1" source="d9allw8TYP7CSEPPQ8cC-9">
          <mxGeometry width="50" height="50" relative="1" as="geometry">
            <mxPoint x="252" y="383" as="sourcePoint" />
            <mxPoint x="270" y="324" as="targetPoint" />
          </mxGeometry>
        </mxCell>
        <mxCell id="d9allw8TYP7CSEPPQ8cC-13" value="" style="rounded=0;whiteSpace=wrap;html=1;strokeColor=default;align=center;verticalAlign=middle;fontFamily=Helvetica;fontSize=12;fontColor=default;fillColor=default;" vertex="1" parent="1">
          <mxGeometry x="225" y="324" width="90" height="60" as="geometry" />
        </mxCell>
      </root>
    </mxGraphModel>
  </diagram>
</mxfile>
